<svg xmlns="http://www.w3.org/2000/svg" xmlns:xlink="http://www.w3.org/1999/xlink" viewBox="0 0 1920 1080" width="1920" height="1080" preserveAspectRatio="xMidYMid meet" style="width: 100%; height: 100%; transform: translate3d(0px, 0px, 0px); content-visibility: visible;"><defs><clipPath id="__lottie_element_767"><rect width="1920" height="1080" x="0" y="0"></rect></clipPath><clipPath id="__lottie_element_775"><path d="M0,0 L1920,0 L1920,1080 L0,1080z"></path></clipPath></defs><g clip-path="url(#__lottie_element_767)"><g transform="matrix(1,0,0,1,1048,540)" opacity="1" style="display: block;"><g opacity="1" transform="matrix(1,0,0,1,-88,131)"><path fill="rgb(2,33,43)" fill-opacity="1" d=" M13.5,-219 C13.5,-219 54,299 54,299 C54,299 -54,299 -54,299 C-54,299 -13,-219 -13,-219 C-13,-219 13.5,-219 13.5,-219z"></path></g></g><g transform="matrix(1,0,0,1,738,540)" opacity="1" style="display: block;"><g opacity="1" transform="matrix(0.5764899849891663,0,0,0.5294100046157837,216,438)"><path fill="rgb(2,33,43)" fill-opacity="1" d=" M536,0 C536,0 536,0 536,0 C536,7.726600170135498 529.7266235351562,14 522,14 C522,14 -522,14 -522,14 C-529.7266235351562,14 -536,7.726600170135498 -536,0 C-536,0 -536,0 -536,0 C-536,-7.726600170135498 -529.7266235351562,-14 -522,-14 C-522,-14 522,-14 522,-14 C529.7266235351562,-14 536,-7.726600170135498 536,0z"></path></g></g><g clip-path="url(#__lottie_element_775)" transform="matrix(-0.6717725992202759,-0.740757405757904,0.740757405757904,-0.6717725992202759,1275.2646484375,1455.06591796875)" opacity="1" style="display: block;"><g transform="matrix(1,0,0,1,691,494)" opacity="1" style="display: block;"><g opacity="1" transform="matrix(1,0,0,1,236,-260)"><path fill="rgb(0,0,0)" fill-opacity="1" d=" M46,-212 C46,-212 35,212 35,212 C35,212 34.75,212 34.75,212 C34.75,212 -44,100 -44,100 C-44,100 22,-170 22,-170 C22,-170 46,-212 46,-212z"></path></g></g><g transform="matrix(-0.46854668855667114,0.883438766002655,-0.883438766002655,-0.46854668855667114,1046.2039794921875,184.3187255859375)" opacity="1" style="display: block;"><g opacity="1" transform="matrix(1,0,0,1,236,-260)"><path fill="rgb(0,0,0)" fill-opacity="1" d=" M46,-212 C46,-212 35,212 35,212 C35,212 34.75,212 34.75,212 C34.75,212 -44,100 -44,100 C-44,100 22,-170 22,-170 C22,-170 46,-212 46,-212z"></path></g></g><g transform="matrix(-0.3074064552783966,-0.9515783190727234,0.9515783190727234,-0.3074064552783966,1090.656005859375,688.8843383789062)" opacity="1" style="display: block;"><g opacity="1" transform="matrix(1,0,0,1,236,-260)"><path fill="rgb(0,0,0)" fill-opacity="1" d=" M46,-212 C46,-212 35,212 35,212 C35,212 34.75,212 34.75,212 C34.75,212 -44,100 -44,100 C-44,100 22,-170 22,-170 C22,-170 46,-212 46,-212z"></path></g></g><g transform="matrix(1,0,0,1,1047,540)" opacity="1" style="display: block;"><g opacity="1" transform="matrix(1,0,0,1,-87,-95)"><path fill="rgb(0,0,0)" fill-opacity="1" d=" M0,-35 C19.316499710083008,-35 35,-19.316499710083008 35,0 C35,19.316499710083008 19.316499710083008,35 0,35 C-19.316499710083008,35 -35,19.316499710083008 -35,0 C-35,-19.316499710083008 -19.316499710083008,-35 0,-35z"></path></g></g><g transform="matrix(1.2857099771499634,0,0,1.2857099771499634,1071.8568115234375,567.1424560546875)" opacity="1" style="display: block;"><g opacity="1" transform="matrix(1,0,0,1,-87,-95)"><path stroke-linecap="butt" stroke-linejoin="miter" fill-opacity="0" stroke-miterlimit="4" stroke="rgb(0,0,0)" stroke-opacity="1" stroke-width="5" d=" M0,-35 C19.316499710083008,-35 35,-19.316499710083008 35,0 C35,19.316499710083008 19.316499710083008,35 0,35 C-19.316499710083008,35 -35,19.316499710083008 -35,0 C-35,-19.316499710083008 -19.316499710083008,-35 0,-35z"></path></g></g></g><g transform="matrix(1,0,0,1,720,540)" opacity="1" style="display: block;"><g opacity="1" transform="matrix(1,0,0,1,0,0)"><path stroke-linecap="butt" stroke-linejoin="miter" fill-opacity="0" stroke-miterlimit="4" stroke="rgb(145,227,255)" stroke-opacity="1" stroke-width="3" d=" M152,-276 C152,-276 660,-248 744,-292 C808.0079956054688,-325.52801513671875 753.5640258789062,-428.7340087890625 676.239013671875,-442.3340148925781"></path></g></g><g transform="matrix(1,0,0,-1,720,45.56201171875)" opacity="1" style="display: block;"><g opacity="1" transform="matrix(1,0,0,1,0,0)"><path stroke-linecap="butt" stroke-linejoin="miter" fill-opacity="0" stroke-miterlimit="4" stroke="rgb(145,227,255)" stroke-opacity="1" stroke-width="3" d=" M255.26600646972656,-271.4530029296875 C408.3890075683594,-265.864013671875 684.0780029296875,-260.61199951171875 744,-292 C792.7459716796875,-317.5329895019531 772.7940063476562,-383.47698974609375 726.35400390625,-419.4800109863281"></path></g></g><g transform="matrix(1,0,0,1,1000,620)" opacity="1" style="display: block;"><g opacity="1" transform="matrix(1,0,0,1,0,0)"><path stroke-linecap="butt" stroke-linejoin="miter" fill-opacity="0" stroke-miterlimit="4" stroke="rgb(145,227,255)" stroke-opacity="1" stroke-width="3" d=" M-530.5130004882812,-204 C-374.0690002441406,-204 -140,-204 -140,-204"></path></g></g><g transform="matrix(0.8194800019264221,0,0,1,879.4126586914062,676)" opacity="1" style="display: block;"><g opacity="1" transform="matrix(1,0,0,1,0,0)"><path stroke-linecap="butt" stroke-linejoin="miter" fill-opacity="0" stroke-miterlimit="4" stroke="rgb(145,227,255)" stroke-opacity="1" stroke-width="3" d=" M-530.5130004882812,-204 C-374.0690002441406,-204 -140,-204 -140,-204"></path></g></g><g transform="matrix(1,0,0,1,950,572)" opacity="0.000024091193605073613" style="display: block;"><g opacity="1" transform="matrix(1,0,0,1,10,-126)"><path stroke-linecap="butt" stroke-linejoin="miter" fill-opacity="0" stroke-miterlimit="4" stroke="rgb(145,227,255)" stroke-opacity="1" stroke-width="3" d=" M-156.75399780273438,243.96600341796875 C-236.88800048828125,192.33999633789062 -290,102.32099914550781 -290,0 C-290,-26.486000061035156 -286.4410095214844,-52.14799880981445 -279.7760009765625,-76.53399658203125"></path></g></g><g transform="matrix(-0.7893627285957336,0.6139270663261414,-0.6139270663261414,-0.7893627285957336,890.538818359375,340.4010314941406)" opacity="0.000024091193605073613" style="display: block;"><g opacity="1" transform="matrix(1,0,0,1,10,-126)"><path stroke-linecap="butt" stroke-linejoin="miter" fill-opacity="0" stroke-miterlimit="4" stroke="rgb(145,227,255)" stroke-opacity="1" stroke-width="3" d=" M-156.75399780273438,243.96600341796875 C-236.88800048828125,192.33999633789062 -290,102.32099914550781 -290,0 C-290,-26.486000061035156 -286.4410095214844,-52.14799880981445 -279.7760009765625,-76.53399658203125"></path></g></g></g></svg>